<?xml version="1.0" encoding="UTF-8" standalone="no"?>
<!-- Created with Inkscape (http://www.inkscape.org/) -->

<svg
   version="1.1"
   id="svg1"
   width="32"
   height="32"
   viewBox="0 0 32 31.999999"
   xmlns="http://www.w3.org/2000/svg"
   xmlns:svg="http://www.w3.org/2000/svg">
  <defs
     id="defs1" />
  <g
     id="g1"
     transform="translate(-51.182885,-974.39716)">
    <g
       id="group-R5"
       transform="translate(104.61505,-7.6547594)">
      <rect
         style="display:inline;fill:#224229;fill-opacity:1;stroke-width:0.247211"
         id="rect44"
         width="31.996956"
         height="32.245392"
         x="-53.41925"
         y="981.97797" />
      <path
         id="path3"
         d="m -40.436369,996.88912 c 0,0 -1.624863,-0.90197 -2.893068,-0.90197 -1.268204,0 -4.79532,2.34478 -4.597092,6.80905 0.19812,4.4643 3.289307,6.8993 6.380495,6.7639 3.091188,-0.1352 5.112291,-3.2015 5.07271,-5.456 0,0 -1.466325,3.6524 -5.151978,3.6071 -3.685657,-0.045 -4.973003,-4.079 -4.457805,-6.5592 0.515198,-2.48007 2.99148,-4.48844 5.646738,-4.26288"
         style="fill:#ffffff;fill-opacity:1;fill-rule:nonzero;stroke:none;stroke-width:0.0115356" />
      <path
         id="path4"
         d="m -40.298594,1001.9884 c 0,0 1.622161,0.5536 4.001328,0.2461 2.379169,-0.3077 3.812077,-1.5689 3.812077,-1.5689 0,0 -1.108476,2.5226 -2.811745,3.7223 0,0 2.000664,-0.3928 3.703932,-1.6115 1.703267,-1.2187 2.216952,-3.31051 2.216952,-3.31051 l -2.108809,1.78421 c 0,0 0.486648,-1.3228 0.486648,-2.39947 0,0 -2.08177,1.44577 -3.298392,1.69197 0,0 1.432909,-1.23054 2.10881,-2.61486 0,0 -0.432577,0.12308 -0.946261,0.33839 -0.513683,0.21537 -1.108476,0.70753 -1.89252,1.59963 -0.784044,0.89214 -2.487312,1.96884 -5.27202,2.12264"
         style="fill:#ffffff;fill-opacity:1;fill-rule:nonzero;stroke:none;stroke-width:0.0115356" />
      <path
         id="path5"
         d="m -34.837322,998.05082 c 0,0 -4.244651,-4.30673 -8.083763,-4.39901 0,0 6.001992,-1.32278 10.030355,1.75344 0,0 -2.108808,-3.29156 -8.056727,-4.39901 0,0 3.55426,-0.41946 5.856322,0.39721 0.03083,0.0109 0.06132,0.022 0.09159,0.0335 0,0 -0.27036,-0.76906 -1.838447,-1.99955 0,0 0.189252,-0.70754 0,-1.13821 0,0 4.244652,2.30716 6.650854,6.09093 0,0 -0.05407,-1.66116 -0.838115,-3.04547 0,0 1.189584,1.32278 1.919557,2.58403 0.729972,1.26126 1.297728,1.75345 1.297728,1.75345 0,0 0.459611,-0.83058 0.243324,-2.83013 l 1.054403,3.41461 c 0,0 0.378504,-2.58403 -1.324764,-5.56796 -1.703269,-2.98393 -3.298392,-4.12216 -3.298392,-4.12216 0,0 2.56842,3.84529 2.7036,7.01381 0,0 -1.108477,-3.44537 -6.515676,-7.01381 l 2.433241,3.72225 c 0,0 -4.379832,-4.67562 -6.867144,-5.13705 0,0 1.649196,2.18388 1.027368,3.59893 -0.621828,1.41506 -2.676564,1.35354 -4.785371,1.44584 -2.108809,0.0922 -5.055732,1.39966 -5.055732,1.39966 0,0 4.433904,-0.4768 7.89451,0.53836 0,0 -3.109138,-0.27686 -6.786034,1.07667 -3.676897,1.35353 -5.650524,3.53765 -5.650524,3.53765 0,0 3.271356,-1.99954 6.867143,-2.15335 3.595788,-0.15381 5.190912,0.70753 6.731964,1.6304 1.541051,0.92289 3.487642,1.75344 4.298723,1.81499"
         style="fill:#ffffff;fill-opacity:1;fill-rule:nonzero;stroke:none;stroke-width:0.0115356" />
      <path
         id="path6"
         d="m -27.943142,1000.6348 c 0,0 0.486648,-1.5996 1.054403,-1.99953 0.567757,-0.39988 0.946261,-0.27686 0.865153,0 -0.08111,0.27685 -0.162216,0.5845 -0.162216,0.5845 0,0 0.432576,-0.15383 1.000332,-0.5845 0.567755,-0.43069 0.86515,-0.70753 0.86515,-0.70753 0,0 0.162217,1.32277 -0.784043,1.66117 -0.946259,0.33839 -1.369968,0 -1.369968,0 0,0 0.126314,1.07669 1.613292,0.83059 1.486981,-0.2461 1.757341,-1.99954 1.649196,-2.36868 0,0 0.919224,-0.0306 0.838116,-0.95365 -0.08111,-0.92287 -1.022286,-0.83058 -2.782113,-0.49222 -1.759934,0.3384 -3.67949,1.75346 -2.787302,4.02985"
         style="fill:#ffffff;fill-opacity:1;fill-rule:nonzero;stroke:none;stroke-width:0.0115356" />
    </g>
  </g>
</svg>
