<?xml version="1.0" encoding="UTF-8" standalone="no"?>
<!-- Created with Inkscape (http://www.inkscape.org/) -->

<svg
   version="1.1"
   id="svg1"
   width="456.04657"
   height="366.4975"
   viewBox="0 0 456.04657 366.49749"
   xmlns="http://www.w3.org/2000/svg"
   xmlns:svg="http://www.w3.org/2000/svg">
  <defs
     id="defs1" />
  <g
     id="g1"
     transform="translate(-51.182885,-974.39716)">
    <g
       id="group-R5"
       transform="translate(104.61505,-7.6547594)">
      <path
         id="path3"
         d="m 131.27201,1158.1754 c 0,0 -24.40234,-13.5456 -43.448339,-13.5456 -19.046006,0 -72.016538,35.2147 -69.039534,102.2588 2.97538,67.0439 49.399101,103.6131 95.822823,101.5804 46.42372,-2.031 76.77682,-48.0802 76.1824,-81.9404 0,0 -22.02139,54.853 -77.37287,54.1748 -55.351491,-0.6764 -74.684964,-61.2599 -66.947677,-98.5073 7.737287,-37.2457 44.926288,-67.408 84.803197,-64.0207"
         style="fill:#243d26;fill-opacity:1;fill-rule:nonzero;stroke:none;stroke-width:0.173242" />
      <path
         id="path4"
         d="m 133.34113,1234.7566 c 0,0 24.36174,8.3158 60.09228,3.696 35.73054,-4.6199 57.25008,-23.5615 57.25008,-23.5615 0,0 -16.64719,37.8831 -42.22701,55.9007 0,0 30.04614,-5.8987 55.62596,-24.2008 25.57982,-18.3022 33.29437,-49.7175 33.29437,-49.7175 l -31.67026,26.7954 c 0,0 7.30852,-19.8656 7.30852,-36.0352 0,0 -31.26421,21.7135 -49.53552,25.4095 0,0 21.51953,-18.4797 31.67026,-39.2692 0,0 -6.49647,1.848 -14.21102,5.0819 -7.71454,3.2339 -16.64719,10.6258 -28.42202,24.0234 -11.77484,13.3978 -37.35466,29.5675 -79.17564,31.8773"
         style="fill:#243d26;fill-opacity:1;fill-rule:nonzero;stroke:none;stroke-width:0.173242" />
      <path
         id="path5"
         d="m 215.35897,1175.622 c 0,0 -63.74653,-64.6786 -121.402639,-66.0646 0,0 90.138419,-19.8655 150.636719,26.3334 0,0 -31.67025,-49.4329 -120.99661,-66.0646 0,0 53.37818,-6.2996 87.95074,5.9653 0.46287,0.1645 0.92087,0.3308 1.37562,0.5027 0,0 -4.06029,-11.5497 -27.60996,-30.0294 0,0 2.8422,-10.6257 0,-17.0936 0,0 63.74654,34.6492 99.8831,91.474 0,0 -0.81205,-24.9475 -12.58689,-45.737 0,0 17.86528,19.8655 28.82806,38.8071 10.96278,18.9417 19.48939,26.3334 19.48939,26.3334 0,0 6.90248,-12.4737 3.65426,-42.5031 l 15.83512,51.2809 c 0,0 5.6844,-38.8071 -19.89542,-83.6201 -25.57982,-44.813 -49.53552,-61.9068 -49.53552,-61.9068 0,0 38.57274,57.7489 40.60289,105.3338 0,0 -16.64719,-51.7428 -97.85297,-105.3338 l 36.5426,55.901 c 0,0 -65.77668,-70.21888 -103.13135,-77.14868 0,0 24.76778,32.79768 15.42911,54.04908 -9.33867,21.2515 -40.19687,20.3276 -71.867119,21.7136 -31.670258,1.386 -75.927408,21.0204 -75.927408,21.0204 0,0 66.58874,-7.1607 118.560437,8.085 0,0 -46.693319,-4.1579 -101.913253,16.1695 -55.219931,20.3276 -84.860042,53.1289 -84.860042,53.1289 0,0 49.1294992,-30.0293 103.131344,-32.3393 54.001851,-2.3099 77.957551,10.6258 101.101191,24.4855 23.14365,13.8597 52.37773,26.3334 64.5586,27.2574"
         style="fill:#243d26;fill-opacity:1;fill-rule:nonzero;stroke:none;stroke-width:0.173242" />
      <path
         id="path6"
         d="m 318.89635,1214.4292 c 0,0 7.30852,-24.0236 15.83512,-30.0294 8.52661,-6.0059 14.21102,-4.1579 12.99293,0 -1.21808,4.1579 -2.43617,8.7777 -2.43617,8.7777 0,0 6.49646,-2.3098 15.02307,-8.7777 8.5266,-6.4679 12.99291,-10.6258 12.99291,-10.6258 0,0 2.43618,19.8656 -11.77483,24.9474 -14.21101,5.0819 -20.5743,0 -20.5743,0 0,0 1.89698,16.1697 24.22856,12.4737 22.33159,-3.6958 26.39188,-30.0292 24.76776,-35.5731 0,0 13.80498,-0.4621 12.5869,-14.3218 -1.21809,-13.8597 -15.35277,-12.4737 -41.782,-7.3918 -26.43085,5.082 -55.25891,26.3335 -41.85995,60.5208"
         style="fill:#243d26;fill-opacity:1;fill-rule:nonzero;stroke:none;stroke-width:0.173242" />
    </g>
  </g>
</svg>
