<?xml version="1.0" encoding="UTF-8"?>
<svg id="Layer_1" data-name="Layer 1" xmlns="http://www.w3.org/2000/svg" viewBox="0 0 267.07 188.63">
  <path d="M108.16,90.65s-14.29-6.97-25.44-6.97-42.17,18.12-40.43,52.63c1.74,34.51,28.93,53.33,56.12,52.28,27.19-1.05,44.96-24.75,44.61-42.17,0,0-12.9,28.23-45.31,27.88-32.41-.35-43.74-31.53-39.2-50.7,4.53-19.17,26.31-34.69,49.66-32.95Z" fill="#e8923a"/>
  <path d="M109.38,130.06s14.27,4.28,35.19,1.9c20.92-2.38,33.53-12.13,33.53-12.13,0,0-9.75,19.5-24.73,28.77,0,0,17.6-3.04,32.58-12.46,14.98-9.42,19.5-25.59,19.5-25.59l-18.55,13.79s4.28-10.22,4.28-18.55c0,0-18.31,11.18-29.01,13.08,0,0,12.6-9.51,18.55-20.21,0,0-3.8.95-8.32,2.62-4.52,1.66-9.75,5.47-16.64,12.36s-21.88,15.22-46.37,16.41Z" fill="#e8923a"/>
  <path d="M157.41,99.63s-37.33-33.29-71.09-34c0,0,52.79-10.22,88.21,13.55,0,0-18.55-25.44-70.86-34,0,0,31.26-3.24,51.5,3.07.27.08.54.17.81.26,0,0-2.38-5.94-16.17-15.46,0,0,1.66-5.47,0-8.8,0,0,37.33,17.83,58.49,47.08,0,0-.48-12.84-7.37-23.54,0,0,10.46,10.22,16.88,19.97,6.42,9.75,11.41,13.55,11.41,13.55,0,0,4.04-6.42,2.14-21.88l9.27,26.39s3.33-19.97-11.65-43.04c-14.98-23.06-29.01-31.86-29.01-31.86,0,0,22.59,29.72,23.78,54.21,0,0-9.75-26.63-57.3-54.21l21.4,28.77S139.34,3.57,117.46,0c0,0,14.5,16.88,9.04,27.82-5.47,10.94-23.54,10.46-42.09,11.18-18.55.71-44.46,10.82-44.46,10.82,0,0,39-3.69,69.43,4.16,0,0-27.34-2.14-59.68,8.32S0,89.64,0,89.64c0,0,28.77-15.46,60.39-16.64s45.65,5.47,59.21,12.6c13.55,7.13,30.67,13.55,37.81,14.03Z" fill="#e8923a"/>
  <path d="M218.04,119.6s4.28-12.36,9.27-15.46c4.99-3.09,8.32-2.14,7.61,0-.71,2.14-1.43,4.52-1.43,4.52,0,0,3.8-1.19,8.8-4.52,4.99-3.33,7.61-5.47,7.61-5.47,0,0,1.43,10.22-6.9,12.84-8.32,2.62-12.05,0-12.05,0,0,0,1.11,8.32,14.19,6.42,13.08-1.9,15.46-15.46,14.5-18.31,0,0,8.08-.24,7.37-7.37s-8.99-6.42-24.47-3.8c-15.48,2.62-32.36,13.55-24.51,31.15Z" fill="#e8923a"/>
</svg>