<?xml version="1.0" encoding="UTF-8"?>
<svg id="Layer_1" data-name="Layer 1" xmlns="http://www.w3.org/2000/svg" viewBox="0 0 1057.98 201.85">
  <g>
    <path d="M115.74,97s-15.29-7.46-27.23-7.46-45.13,19.39-43.26,56.32c1.86,36.92,30.96,57.06,60.05,55.94,29.09-1.12,48.11-26.48,47.74-45.13,0,0-13.8,30.21-48.49,29.84-34.69-.37-46.8-33.74-41.95-54.25,4.85-20.51,28.15-37.12,53.14-35.26Z" fill="#f0f6fc"/>
    <path d="M117.04,139.18s15.27,4.58,37.66,2.04,35.88-12.98,35.88-12.98c0,0-10.43,20.86-26.46,30.79,0,0,18.83-3.25,34.86-13.33,16.03-10.08,20.86-27.38,20.86-27.38l-19.85,14.76s4.58-10.94,4.58-19.85c0,0-19.59,11.96-31.04,13.99,0,0,13.49-10.18,19.85-21.63,0,0-4.07,1.02-8.91,2.8-4.83,1.78-10.43,5.85-17.81,13.23s-23.41,16.28-49.61,17.56Z" fill="#f0f6fc"/>
    <path d="M168.44,106.61s-39.95-35.62-76.08-36.38c0,0,56.48-10.94,94.4,14.5,0,0-19.85-27.22-75.82-36.38,0,0,33.45-3.47,55.11,3.29.29.09.58.18.86.28,0,0-2.54-6.36-17.3-16.54,0,0,1.78-5.85,0-9.41,0,0,39.95,19.08,62.59,50.38,0,0-.51-13.74-7.89-25.19,0,0,11.2,10.94,18.06,21.37,6.87,10.43,12.21,14.5,12.21,14.5,0,0,4.33-6.87,2.29-23.41l9.92,28.24s3.56-21.37-12.47-46.05c-16.03-24.68-31.04-34.09-31.04-34.09,0,0,24.17,31.8,25.44,58.01,0,0-10.43-28.5-61.32-58.01l22.9,30.79S149.1,3.82,125.69,0c0,0,15.52,18.06,9.67,29.77s-25.19,11.2-45.03,11.96c-19.85.76-47.58,11.58-47.58,11.58,0,0,41.73-3.94,74.29,4.45,0,0-29.26-2.29-63.86,8.91C18.57,77.86,0,95.92,0,95.92c0,0,30.79-16.54,64.63-17.81,33.84-1.27,48.85,5.85,63.35,13.49,14.5,7.63,32.82,14.5,40.46,15.01Z" fill="#f0f6fc"/>
    <path d="M233.32,127.98s4.58-13.23,9.92-16.54c5.34-3.31,8.91-2.29,8.14,0s-1.53,4.83-1.53,4.83c0,0,4.07-1.27,9.41-4.83,5.34-3.56,8.14-5.85,8.14-5.85,0,0,1.53,10.94-7.38,13.74-8.91,2.8-12.89,0-12.89,0,0,0,1.19,8.91,15.18,6.87,13.99-2.04,16.54-16.54,15.52-19.59,0,0,8.65-.25,7.89-7.89s-9.62-6.87-26.18-4.07c-16.56,2.8-34.63,14.5-26.23,33.33Z" fill="#f0f6fc"/>
  </g>
  <g>
    <path d="M337.09,2.2h57.58v11.47h-44.04v25.13h41.6v11.47h-41.6v27.57h46.36l-1.83,11.47h-58.07V2.2Z" fill="#f0f6fc"/>
    <path d="M426.88,89.3h-14.64l30.26-45.87-27.94-41.24h15.62l20.62,31.96,20.86-31.96h14.52l-27.82,41.6,31.11,45.51h-15.49l-23.91-36.11-23.18,36.11Z" fill="#f0f6fc"/>
    <path d="M509.23,2.2h57.58v11.47h-44.04v25.13h41.6v11.47h-41.6v27.57h46.36l-1.83,11.47h-58.07V2.2Z" fill="#f0f6fc"/>
    <path d="M588.65,45.99c0-9.84,1.71-18.18,5.12-25.01s8.09-12.04,14.03-15.62c5.94-3.58,12.73-5.37,20.37-5.37,7.24,0,13.2,1.2,17.87,3.6,4.68,2.4,8.38,5.75,11.1,10.06,2.72,4.31,4.66,9.39,5.79,15.25l-13.3,2.07c-1.38-6.02-3.64-10.73-6.77-14.15-3.13-3.42-8.07-5.12-14.82-5.12-5.37,0-9.94,1.4-13.72,4.21-3.78,2.81-6.65,6.75-8.6,11.83-1.95,5.08-2.93,11.08-2.93,18,0,10.33,2.21,18.59,6.65,24.77,4.43,6.18,10.72,9.27,18.85,9.27,4.96,0,8.95-.83,11.96-2.5,3.01-1.67,5.31-3.98,6.89-6.95,1.59-2.97,2.66-6.41,3.23-10.31h13.79c-.57,6.1-2.28,11.51-5.12,16.23-2.85,4.72-6.83,8.44-11.96,11.16-5.12,2.72-11.47,4.09-19.03,4.09-8.13,0-15.15-1.79-21.04-5.37-5.9-3.58-10.43-8.76-13.6-15.55-3.17-6.79-4.76-14.99-4.76-24.58Z" fill="#f0f6fc"/>
    <path d="M686.98,54.05V2.2h13.42v52.46c0,8.38,1.61,14.66,4.82,18.85,3.21,4.19,8.4,6.28,15.55,6.28s12.48-2.09,15.49-6.28c3.01-4.19,4.51-10.47,4.51-18.85V2.2h13.54v52.34c0,12.85-2.97,22.22-8.91,28.12-5.94,5.9-14.23,8.85-24.89,8.85s-19.11-2.97-24.89-8.91c-5.78-5.94-8.66-15.45-8.66-28.55Z" fill="#f0f6fc"/>
    <path d="M802.39,14.15h-28.18V2.2h69.91v11.96h-28.18v75.15h-13.54V14.15Z" fill="#f0f6fc"/>
    <path d="M864.85,2.2h13.54v87.11h-13.54V2.2Z" fill="#f0f6fc"/>
    <path d="M938.3,73.2l25.25-71h14.52l-32.45,87.11h-14.64L898.52,2.2h15.01l24.77,71Z" fill="#f0f6fc"/>
    <path d="M998.07,2.2h57.58v11.47h-44.04v25.13h41.6v11.47h-41.6v27.57h46.36l-1.83,11.47h-58.07V2.2Z" fill="#f0f6fc"/>
  </g>
  <g>
    <path d="M375.6,176.84h-35.99l-8.42,22.81h-13.91l33.18-87.11h14.88l33.06,87.11h-14.4l-8.42-22.81ZM357.54,126.33l-14.15,39.04h28.3l-14.15-39.04Z" fill="#f0f6fc"/>
    <path d="M418.3,112.54h12.93l41.97,65.64v-65.64h12.93v87.11h-12.44l-42.46-65.51v65.51h-12.93v-87.11Z" fill="#f0f6fc"/>
    <path d="M510.89,156.22c0-8.95,1.54-16.88,4.64-23.79,3.09-6.91,7.6-12.32,13.54-16.23,5.94-3.9,13.13-5.86,21.59-5.86,10,0,17.71,2.32,23.12,6.95,5.41,4.64,8.97,10.82,10.67,18.54l-13.3,1.95c-1.22-4.8-3.31-8.66-6.28-11.59-2.97-2.93-7.71-4.39-14.21-4.39-5.94,0-10.8,1.49-14.58,4.45-3.78,2.97-6.59,7.04-8.42,12.2-1.83,5.17-2.75,11.04-2.75,17.63,0,10.41,2.2,18.71,6.59,24.89,4.39,6.18,11.26,9.27,20.62,9.27,4.07,0,7.91-.49,11.53-1.46,3.62-.98,6.85-2.48,9.7-4.51v-18.91h-20.62v-11.35h33.18v35.75c-4.39,3.99-9.66,7-15.8,9.03-6.14,2.03-12.22,3.05-18.24,3.05-13.01,0-23.1-4.03-30.26-12.08-7.16-8.05-10.74-19.23-10.74-33.55Z" fill="#f0f6fc"/>
    <path d="M611.18,112.54h13.54v75.15h43.92l-1.71,11.96h-55.75v-87.11Z" fill="#f0f6fc"/>
    <path d="M689.62,112.54h57.58v11.47h-44.04v25.13h41.6v11.47h-41.6v27.57h46.36l-1.83,11.47h-58.07v-87.11Z" fill="#f0f6fc"/>
    <path d="M771.97,112.54h29.77c6.42,0,11.73.69,15.92,2.07,4.19,1.38,7.5,3.28,9.94,5.67,2.44,2.4,4.17,5.1,5.18,8.11,1.02,3.01,1.53,6.1,1.53,9.27,0,5.53-1.16,10.29-3.48,14.27-2.32,3.99-6,7.12-11.04,9.39l18.18,38.31h-14.76l-16.1-35.26c-.98.08-1.97.14-2.99.18-1.02.04-1.97.06-2.87.06h-16.1v35.01h-13.18v-87.11ZM820.89,138.17c0-3.09-.57-5.73-1.71-7.93-1.14-2.2-3.15-3.86-6.04-5-2.89-1.14-6.89-1.71-12.02-1.71h-15.98v30.01h17.32c4.8,0,8.54-.63,11.22-1.89,2.68-1.26,4.55-3.03,5.61-5.31,1.06-2.28,1.59-5,1.59-8.17Z" fill="#f0f6fc"/>
  </g>
</svg>