<?xml version="1.0" encoding="UTF-8" standalone="no"?>
<!-- Created with Inkscape (http://www.inkscape.org/) -->

<svg
   version="1.1"
   id="svg1"
   width="1713.8988"
   height="366.4975"
   viewBox="0 0 1713.8988 366.49749"
   xmlns="http://www.w3.org/2000/svg"
   xmlns:svg="http://www.w3.org/2000/svg">
  <defs
     id="defs1" />
  <g
     id="g1"
     transform="translate(-51.182885,-974.39717)">
    <g
       id="group-R5"
       transform="translate(104.61505,-7.6547594)"
       style="fill:#c5a059;fill-opacity:1">
      <path
         id="path3"
         d="m 131.27201,1158.1754 c 0,0 -24.40234,-13.5456 -43.448339,-13.5456 -19.046006,0 -72.016538,35.2147 -69.039534,102.2588 2.97538,67.0439 49.399101,103.6131 95.822823,101.5804 46.42372,-2.031 76.77682,-48.0802 76.1824,-81.9404 0,0 -22.02139,54.853 -77.37287,54.1748 -55.351491,-0.6764 -74.684964,-61.2599 -66.947677,-98.5073 7.737287,-37.2457 44.926288,-67.408 84.803197,-64.0207"
         style="fill:#c5a059;fill-opacity:1;fill-rule:nonzero;stroke:none;stroke-width:0.173242" />
      <path
         id="path4"
         d="m 133.34113,1234.7566 c 0,0 24.36174,8.3158 60.09228,3.696 35.73054,-4.6199 57.25008,-23.5615 57.25008,-23.5615 0,0 -16.64719,37.8831 -42.22701,55.9007 0,0 30.04614,-5.8987 55.62596,-24.2008 25.57982,-18.3022 33.29437,-49.7175 33.29437,-49.7175 l -31.67026,26.7954 c 0,0 7.30852,-19.8656 7.30852,-36.0352 0,0 -31.26421,21.7135 -49.53552,25.4095 0,0 21.51953,-18.4797 31.67026,-39.2692 0,0 -6.49647,1.848 -14.21102,5.0819 -7.71454,3.2339 -16.64719,10.6258 -28.42202,24.0234 -11.77484,13.3978 -37.35466,29.5675 -79.17564,31.8773"
         style="fill:#c5a059;fill-opacity:1;fill-rule:nonzero;stroke:none;stroke-width:0.173242" />
      <path
         id="path5"
         d="m 215.35897,1175.622 c 0,0 -63.74653,-64.6786 -121.402639,-66.0646 0,0 90.138419,-19.8655 150.636719,26.3334 0,0 -31.67025,-49.4329 -120.99661,-66.0646 0,0 53.37818,-6.2996 87.95074,5.9653 0.46287,0.1645 0.92087,0.3308 1.37562,0.5027 0,0 -4.06029,-11.5497 -27.60996,-30.0294 0,0 2.8422,-10.6257 0,-17.0936 0,0 63.74654,34.6492 99.8831,91.474 0,0 -0.81205,-24.9475 -12.58689,-45.737 0,0 17.86528,19.8655 28.82806,38.8071 10.96278,18.9417 19.48939,26.3334 19.48939,26.3334 0,0 6.90248,-12.4737 3.65426,-42.5031 l 15.83512,51.2809 c 0,0 5.6844,-38.8071 -19.89542,-83.6201 -25.57982,-44.813 -49.53552,-61.9068 -49.53552,-61.9068 0,0 38.57274,57.7489 40.60289,105.3338 0,0 -16.64719,-51.7428 -97.85297,-105.3338 l 36.5426,55.901 c 0,0 -65.77668,-70.21888 -103.13135,-77.14868 0,0 24.76778,32.79768 15.42911,54.04908 -9.33867,21.2515 -40.19687,20.3276 -71.867119,21.7136 -31.670258,1.386 -75.927408,21.0204 -75.927408,21.0204 0,0 66.58874,-7.1607 118.560437,8.085 0,0 -46.693319,-4.1579 -101.913253,16.1695 -55.219931,20.3276 -84.860042,53.1289 -84.860042,53.1289 0,0 49.1294992,-30.0293 103.131344,-32.3393 54.001851,-2.3099 77.957551,10.6258 101.101191,24.4855 23.14365,13.8597 52.37773,26.3334 64.5586,27.2574"
         style="fill:#c5a059;fill-opacity:1;fill-rule:nonzero;stroke:none;stroke-width:0.173242" />
      <path
         id="path6"
         d="m 318.89635,1214.4292 c 0,0 7.30852,-24.0236 15.83512,-30.0294 8.52661,-6.0059 14.21102,-4.1579 12.99293,0 -1.21808,4.1579 -2.43617,8.7777 -2.43617,8.7777 0,0 6.49646,-2.3098 15.02307,-8.7777 8.5266,-6.4679 12.99291,-10.6258 12.99291,-10.6258 0,0 2.43618,19.8656 -11.77483,24.9474 -14.21101,5.0819 -20.5743,0 -20.5743,0 0,0 1.89698,16.1697 24.22856,12.4737 22.33159,-3.6958 26.39188,-30.0292 24.76776,-35.5731 0,0 13.80498,-0.4621 12.5869,-14.3218 -1.21809,-13.8597 -15.35277,-12.4737 -41.782,-7.3918 -26.43085,5.082 -55.25891,26.3335 -41.85995,60.5208"
         style="fill:#c5a059;fill-opacity:1;fill-rule:nonzero;stroke:none;stroke-width:0.173242" />
      <path
         id="path7"
         d="m 5622.91,6029.94 97.38,235.15 97.4,-235.15 z m 36.64,345.87 -248.26,-557.01 h 123.41 l 50.22,121.51 h 269.94 l 50.22,-121.51 h 126.64 l -249.06,557.01 h -123.11"
         style="fill:#c5a059;fill-opacity:1;fill-rule:nonzero;stroke:none"
         transform="matrix(0.13333333,0,0,-0.13333333,0,2122.92)" />
      <path
         id="path8"
         d="M 6413.79,6375.81 V 5818.8 h 119.6 v 353.22 l 290.05,-353.22 h 100.37 v 557.01 h -119.6 v -353.24 l -289.25,353.24 h -101.17"
         style="fill:#c5a059;fill-opacity:1;fill-rule:nonzero;stroke:none"
         transform="matrix(0.13333333,0,0,-0.13333333,0,2122.92)" />
      <path
         id="path9"
         d="m 7656.19,6283.75 c 56.77,0 106.14,-20.86 146.8,-62.01 l 77.06,71.14 c -26.34,29.36 -58.95,52.19 -96.99,67.92 -39.72,16.41 -84.59,24.73 -133.35,24.73 -58.3,0 -111.48,-12.48 -158.05,-37.09 -46.47,-24.55 -83.29,-59.08 -109.42,-102.64 -26.14,-43.54 -39.38,-93.5 -39.38,-148.49 0,-54.98 13.24,-104.95 39.38,-148.5 26.12,-43.51 62.68,-78.11 108.63,-102.61 46.01,-24.6 98.64,-37.1 156.41,-37.1 40.34,0 81,6.2 120.84,18.4 38.89,11.9 73.65,29.1 103.39,51.2 v 222.52 h -109.88 v -164.05 l -2.64,-1.41 c -30.83,-16.56 -65.97,-24.86 -104.42,-24.86 -36.34,0 -69.17,7.9 -97.6,23.68 -28.5,15.77 -51.09,38.08 -67.13,66.3 -16.02,28.15 -24.15,60.6 -24.15,96.43 0,36.36 8.13,69.09 24.15,97.24 16.05,28.24 38.79,50.42 67.59,65.92 28.68,15.45 61.91,23.28 98.76,23.28"
         style="fill:#c5a059;fill-opacity:1;fill-rule:nonzero;stroke:none"
         transform="matrix(0.13333333,0,0,-0.13333333,0,2122.92)" />
      <path
         id="path10"
         d="M 8434.45,6375.81 H 8313.23 V 5818.8 h 405.53 v 96.9 h -284.31 v 460.11"
         style="fill:#c5a059;fill-opacity:1;fill-rule:nonzero;stroke:none"
         transform="matrix(0.13333333,0,0,-0.13333333,0,2122.92)" />
      <path
         id="path11"
         d="m 9233.1,6055.33 h 263.25 v 92.06 H 9233.1 v 133.12 h 298.09 v 95.3 h -418.5 V 5818.8 h 429.02 v 95.3 H 9233.1 v 141.23"
         style="fill:#c5a059;fill-opacity:1;fill-rule:nonzero;stroke:none"
         transform="matrix(0.13333333,0,0,-0.13333333,0,2122.92)" />
      <path
         id="path12"
         d="m 10292.7,6098.34 c -21.3,-17.98 -52.7,-27.09 -93.1,-27.09 h -112 v 207.64 h 112 c 40.4,0 71.7,-8.98 93.1,-26.67 21.6,-17.93 32.6,-43.89 32.6,-77.15 0,-32.72 -11,-58.53 -32.6,-76.73 z m 36.2,-100.14 5.6,2.45 c 36.1,15.73 64.4,38.69 84,68.24 19.6,29.51 29.6,65.23 29.6,106.18 0,40.95 -9.8,76.82 -29.2,106.62 -19.3,29.82 -47.4,53.18 -83.3,69.46 -36.2,16.36 -79.5,24.66 -128.7,24.66 H 9966.42 V 5818.8 h 121.18 v 157.96 h 128.4 l 109.3,-157.96 h 128.7 l -125.1,179.4"
         style="fill:#c5a059;fill-opacity:1;fill-rule:nonzero;stroke:none"
         transform="matrix(0.13333333,0,0,-0.13333333,0,2122.92)" />
      <path
         id="path13"
         d="m 4314.36,7096.51 c -4.05,2.48 -8.54,3.74 -13.35,3.74 -10.7,0 -12.56,-5.4 -12.78,-8.34 -17.93,-81.1 -51.18,-144.33 -98.84,-187.98 -47.55,-43.59 -108.42,-65.69 -180.92,-65.69 H 3881.7 c -51.7,0 -86.28,8.27 -102.77,24.57 -16.49,16.26 -24.85,48.03 -24.85,94.44 v 453 h 203.68 c 68.62,0 119.03,-13.39 149.84,-39.79 30.55,-26.24 46.04,-67.69 46.04,-123.21 0,-9.01 12.57,-9.01 16.7,-9.01 4.13,0 16.71,0 16.71,9.01 0,24.09 -1.28,56.89 -3.91,100.1 l -1.95,89.84 1.95,168.06 c 0,5.97 -5.29,9 -15.72,9 -10.44,0 -15.73,-3.03 -15.73,-9 0,-47.47 -15.07,-82.79 -44.81,-104.99 -30.14,-22.57 -78.35,-34.01 -143.27,-34.01 h -209.53 v 401 c 0,46.23 9.25,77.59 27.51,93.2 18.5,15.79 56.11,23.8 111.81,23.8 h 99.47 c 65.98,0 119.96,-18.74 160.45,-55.69 40.49,-37 65.55,-92.14 74.67,-164.85 1.14,-3.55 5.27,-9.6 17.9,-8.45 13.28,1.23 15.26,8.03 15.26,12.07 l -3.89,251.92 c 0,14.83 -8.71,23 -24.51,23 h -795.71 c -4.05,0 -10.85,-2.21 -10.85,-17 0,-14.8 6.8,-17.01 10.85,-17.01 44.69,0 77.95,-3.61 98.82,-10.72 20.22,-6.92 33.6,-18.77 40.89,-36.2 7.5,-17.99 11.31,-46.94 11.31,-86.07 v -926 c 0,-39.18 -3.81,-68.5 -11.34,-87.13 -7.28,-18.06 -20.29,-29.87 -39.8,-36.11 -20.15,-6.48 -53.75,-9.76 -99.88,-9.76 -4.05,0 -10.85,-2.21 -10.85,-17 0,-14.8 6.8,-17 10.85,-17 h 830.82 c 13.4,0 22.31,2.88 27.23,8.79 4.72,5.63 7.02,14.21 7.02,26.21 0,83.43 6.55,174.05 19.5,270 0,4.22 -3.87,7.16 -7.25,9.26"
         style="fill:#c5a059;fill-opacity:1;fill-rule:nonzero;stroke:none"
         transform="matrix(0.13333333,0,0,-0.13333333,0,2122.92)" />
      <path
         id="path14"
         d="m 5433.3,6810.65 c -37.77,0 -70.1,8 -96.09,23.8 -26.14,15.86 -52.26,43.73 -77.63,82.76 l -249.35,389.66 177.49,247.24 c 38.39,55.5 77.24,97.92 115.47,126.09 37.85,27.83 73.06,41.95 104.69,41.95 3.55,0 9.49,1.85 9.49,14.2 0,12.34 -5.94,14.2 -9.62,14.2 h -0.01 l -57.07,-1.55 c -25.47,-2.03 -47.47,-3.05 -65.39,-3.05 -31,0 -66.63,1.02 -106.05,3.06 l -68.88,1.54 c -3.55,0 -9.49,-1.85 -9.49,-14.2 0,-12.35 5.94,-14.2 9.49,-14.2 51.96,0 77.23,-16.92 77.23,-51.73 0,-24.4 -15.31,-59.58 -45.47,-104.49 l -154.21,-223.79 -208.24,326.34 c -8.42,13.43 -12.69,23.87 -12.69,31.07 0,8.09 4.2,13.42 13.2,16.78 10.39,3.87 26.9,5.82 49.09,5.82 3.54,0 9.48,1.85 9.48,14.2 0,12.35 -5.94,14.2 -9.58,14.2 l -79.35,-1.54 c -49.16,-2.03 -91.35,-3.06 -125.39,-3.06 -12.98,0 -32.46,1.02 -58.18,3.06 l -59.94,1.54 c -7.99,0 -7.99,-10.69 -7.99,-14.2 0,-3.52 0,-14.2 7.99,-14.2 31.67,0 59.89,-8.47 83.86,-25.17 24.28,-16.96 49.99,-46.41 76.4,-87.52 l 238.89,-374.33 -190.88,-265.54 c -38.39,-52.51 -76.5,-92.64 -113.27,-119.26 -36.32,-26.33 -70.8,-39.68 -102.47,-39.68 -3.55,0 -9.49,-1.85 -9.49,-14.2 0,-12.36 5.94,-14.2 9.49,-14.2 25.97,0 45.23,0.51 56.93,1.53 l 67.09,1.53 104.42,-1.52 c 15.91,-1.03 39.66,-1.54 70.59,-1.54 3.54,0 9.48,1.84 9.48,14.2 0,12.35 -5.94,14.2 -9.48,14.2 -52.98,0 -78.73,16.92 -78.73,51.72 0,26.41 13.77,58.96 40.99,96.84 l 166.16,242.16 215.8,-338.72 c 8.37,-12.39 12.61,-22.81 12.61,-30.94 0,-4.44 -1.37,-10.85 -13.2,-15.24 -10.36,-3.87 -26.87,-5.82 -49.09,-5.82 -7.99,0 -7.99,-10.69 -7.99,-14.2 0,-3.52 0,-14.2 7.99,-14.2 31.89,0 57.64,0.51 76.32,1.53 l 116.47,1.53 83.5,-1.52 c 15.91,-1.03 37.65,-1.54 64.61,-1.54 7.99,0 7.99,10.68 7.99,14.2 0,3.51 0,14.2 -7.99,14.2"
         style="fill:#c5a059;fill-opacity:1;fill-rule:nonzero;stroke:none"
         transform="matrix(0.13333333,0,0,-0.13333333,0,2122.92)" />
      <path
         id="path15"
         d="m 6321.78,7025.33 c -3.28,2.02 -6.92,3.04 -10.83,3.04 -9.16,0 -10.73,-4.99 -10.95,-7.37 -13.7,-61.9 -39.07,-110.15 -75.41,-143.44 -36.24,-33.21 -82.64,-50.05 -137.92,-50.05 h -97.18 c -39.32,0 -65.55,6.22 -77.98,18.5 -12.4,12.22 -18.69,36.31 -18.69,71.57 v 346.11 h 154.98 c 52.32,0 90.71,-10.16 114.11,-30.21 23.15,-19.89 34.89,-51.37 34.89,-93.58 0,-5.35 4.7,-8.06 13.97,-8.06 9.27,0 13.97,2.71 13.97,8.06 0,18.32 -1.01,44.21 -2.99,76.77 l -1.49,68.84 1.49,128.85 c 0,3.68 -2.29,8.06 -13.22,8.06 -10.93,0 -13.22,-4.38 -13.22,-8.06 0,-36 -11.4,-62.77 -33.88,-79.56 -22.92,-17.14 -59.64,-25.83 -109.14,-25.83 h -159.47 v 306.25 c 0,35.08 6.96,58.82 20.67,70.56 13.96,11.93 42.55,17.97 84.97,17.97 h 76.25 c 50.29,0 91.41,-14.27 122.22,-42.39 30.83,-28.17 49.92,-70.21 56.93,-125.86 0.97,-3.05 4.43,-8.26 14.94,-7.3 11.51,1.08 12.76,7.6 12.76,10.43 l -2.99,193.12 c 0,11.94 -7.27,18.8 -19.95,18.8 h -610.03 c -3.54,0 -9.48,-1.85 -9.48,-14.2 0,-12.35 5.94,-14.2 9.48,-14.2 34.12,0 59.48,-2.74 75.39,-8.16 15.17,-5.2 25.19,-14.06 30.64,-27.09 5.7,-13.66 8.59,-35.71 8.59,-65.55 v -709.9 c 0,-29.9 -2.9,-52.22 -8.62,-66.37 -5.43,-13.49 -15.17,-22.32 -29.78,-27.01 -15.33,-4.92 -40.98,-7.42 -76.22,-7.42 -3.54,0 -9.48,-1.85 -9.48,-14.2 0,-12.36 5.94,-14.2 9.48,-14.2 h 636.94 c 10.65,0 17.77,2.34 21.77,7.16 3.81,4.53 5.66,11.34 5.66,20.84 0,63.93 5.01,133.34 14.95,206.99 0,3.82 -3.26,6.33 -6.13,8.09"
         style="fill:#c5a059;fill-opacity:1;fill-rule:nonzero;stroke:none"
         transform="matrix(0.13333333,0,0,-0.13333333,0,2122.92)" />
      <path
         id="path16"
         d="m 7461.83,7054.07 c -3.13,1.26 -6.52,1.9 -10.09,1.9 -7.51,0 -10.53,-4.27 -10.93,-8.59 -60.77,-165.23 -162.72,-249 -303.06,-249 -71.32,0 -137.96,23.13 -198.07,68.75 -60.34,45.77 -108.86,108.83 -144.24,187.42 -35.43,78.72 -53.39,166.24 -53.39,260.15 0,80.66 14.19,152.7 42.16,214.12 27.87,61.15 68.74,109.18 121.49,142.74 52.77,33.57 115.76,50.59 187.2,50.59 81.29,0 151.79,-19.58 209.53,-58.18 57.57,-38.55 99.66,-97.77 125.11,-176 0.78,-2.45 4.05,-8.4 14.24,-7.29 10.8,1.11 11.97,7.6 11.95,10.79 l -16.51,185.96 c -2.13,11.89 -4.5,20.15 -7.25,25.28 -3.02,5.53 -8.84,10.47 -17.75,15.05 -29.23,15.5 -68.96,27.79 -118.09,36.54 -48.97,8.7 -97.05,13.11 -142.92,13.11 -96.01,0 -187.56,-21.06 -272.08,-62.6 -84.6,-41.59 -153.66,-100.42 -205.25,-174.91 -51.68,-74.61 -77.89,-160.94 -77.89,-256.6 0,-84.23 19.29,-165.96 57.34,-242.95 38.12,-77.16 98.6,-141.55 179.79,-191.39 81.13,-49.84 183.63,-75.11 304.63,-75.11 95.87,0 191.07,18.69 283.16,55.64 9.89,4.49 16.17,8.81 19.24,13.21 2.97,4.27 5.37,12.48 7.58,26.05 l 20.97,186.09 c 0,1.92 -0.67,6.67 -6.87,9.23"
         style="fill:#c5a059;fill-opacity:1;fill-rule:nonzero;stroke:none"
         transform="matrix(0.13333333,0,0,-0.13333333,0,2122.92)" />
      <path
         id="path17"
         d="m 8677.64,7750.55 -64.47,-1.54 c -33.38,-2.04 -59.44,-3.06 -77.45,-3.06 -21.02,0 -49.59,1.02 -85.11,3.06 l -67.39,1.54 c -3.55,0 -9.49,-1.85 -9.49,-14.2 0,-12.35 5.94,-14.2 9.49,-14.2 42.07,0 74.23,-13.07 95.57,-38.83 21.57,-26.03 32.49,-64.94 32.49,-115.63 v -433.92 c 0,-98.46 -24.48,-176.01 -72.75,-230.52 -48.11,-54.32 -115.52,-81.87 -200.35,-81.87 -90.72,0 -162.12,30.6 -212.2,90.96 -50.33,60.61 -75.85,151.62 -75.85,270.49 v 435.45 c 0,29.89 2.9,52.21 8.62,66.36 5.48,13.59 15.53,22.96 30.74,28.62 15.82,5.9 41.13,8.89 75.25,8.89 3.55,0 9.49,1.85 9.49,14.2 0,12.35 -5.94,14.2 -9.6,14.2 l -71.89,-1.54 c -43.24,-2.04 -79.38,-3.06 -107.41,-3.06 -26.08,0 -61.2,1.02 -104.55,3.06 l -74.88,1.54 c -3.54,0 -9.48,-1.85 -9.48,-14.2 0,-12.35 5.94,-14.2 9.48,-14.2 35.11,0 60.98,-2.74 76.88,-8.16 15.17,-5.2 25.19,-14.06 30.65,-27.09 5.7,-13.65 8.59,-35.7 8.59,-65.55 v -492.18 c 0,-74.16 15.81,-139.73 46.99,-194.89 31.23,-55.28 75.67,-98.24 132.12,-127.7 56.26,-29.37 122.43,-44.26 196.69,-44.26 109.51,0 198.47,33.5 264.43,99.59 65.96,66.1 99.41,158.08 99.41,273.39 v 432.39 c 0,103.93 37.97,154.46 116.1,154.46 7.99,0 7.99,10.68 7.99,14.2 0,3.51 0,14.2 -8.11,14.2"
         style="fill:#c5a059;fill-opacity:1;fill-rule:nonzero;stroke:none"
         transform="matrix(0.13333333,0,0,-0.13333333,0,2122.92)" />
      <path
         id="path18"
         d="m 9731.09,7795.01 c -10.59,0 -13.67,-6.24 -14.47,-9.58 -4.51,-13.81 -14.18,-22.78 -29.58,-27.43 -16.36,-4.94 -43.04,-7.45 -79.38,-7.45 l -101.75,-1.54 c -64.91,-2.03 -127.74,-3.06 -186.74,-3.06 -115.04,0 -216.09,1.54 -300.52,4.6 -51.25,0 -77.24,9.67 -77.24,28.73 0,7.93 -5.22,12.66 -13.96,12.66 -8.75,0 -13.98,-4.73 -13.98,-12.66 0,-32.3 -2.51,-81.18 -7.45,-145.27 -4.97,-63.92 -9.48,-111.29 -13.48,-141.45 0,-3.68 2.3,-8.07 13.23,-8.07 4.87,0 11.64,0.61 14.21,5.87 l 0.39,1.14 c 16.66,76.39 42.36,132.56 76.41,166.97 33.75,34.12 81.35,51.41 141.48,51.41 36.22,0 62.47,-2.01 77.99,-5.97 14.58,-3.75 24.26,-11.14 29.61,-22.58 5.65,-12.06 8.51,-32.24 8.51,-59.98 v -709.9 c 0,-29.77 -3.36,-52.01 -9.99,-66.11 -6.38,-13.55 -18.05,-22.45 -35.66,-27.2 -18.37,-4.97 -48.12,-7.49 -88.4,-7.49 -3.55,0 -9.49,-1.85 -9.49,-14.2 0,-12.36 5.94,-14.2 9.49,-14.2 35.85,0 64.11,0.51 83.8,1.53 l 114.99,1.53 117.93,-1.52 c 19.85,-1.03 47.6,-1.54 82.49,-1.54 7.98,0 7.98,10.68 7.98,14.2 0,3.51 0,14.2 -7.98,14.2 -41.31,0 -71.56,2.52 -89.91,7.49 -17.59,4.74 -29,13.37 -34.87,26.37 -6.15,13.55 -9.28,36.07 -9.28,66.94 v 706.83 c 0,28.74 2.86,49.44 8.51,61.52 5.38,11.51 15.12,19.16 29.75,23.38 15.42,4.45 41.62,6.7 77.86,6.7 63.04,0 111.12,-17.01 142.89,-50.56 31.94,-33.76 51.61,-90.02 58.44,-166.76 0,-3.68 2.29,-8.07 13.22,-8.07 10.93,0 13.22,4.39 13.22,8.07 0,38.85 1.76,90.33 5.22,153.05 3.47,62.94 6.73,109.28 9.73,138.27 0,2.61 -0.96,11.13 -13.22,11.13"
         style="fill:#c5a059;fill-opacity:1;fill-rule:nonzero;stroke:none"
         transform="matrix(0.13333333,0,0,-0.13333333,0,2122.92)" />
      <path
         id="path19"
         d="m 10250.8,7684.64 c 5.5,13.58 15.8,22.94 31.5,28.61 16.3,5.9 41.8,8.9 76,8.9 8,0 8,10.68 8,14.2 0,3.51 0,14.2 -8.1,14.2 l -73.4,-1.54 c -43.2,-2.04 -79.9,-3.06 -108.9,-3.06 -26.1,0 -61.2,1.02 -104.6,3.06 l -77.82,1.54 c -7.99,0 -7.99,-10.69 -7.99,-14.2 0,-3.52 0,-14.2 7.99,-14.2 35.12,0 61.22,-2.75 77.62,-8.18 15.7,-5.2 25.9,-14.06 31.4,-27.07 5.7,-13.66 8.6,-35.71 8.6,-65.55 v -709.9 c 0,-29.9 -2.9,-52.23 -8.6,-66.36 -5.5,-13.48 -15.7,-22.31 -31.2,-26.99 -16.4,-4.94 -42.6,-7.45 -77.82,-7.45 -7.99,0 -7.99,-10.69 -7.99,-14.2 0,-3.52 0,-14.2 7.99,-14.2 32.92,0 59.12,0.51 77.82,1.53 l 104.5,1.53 107.5,-1.52 c 17.8,-1.03 43.1,-1.54 75,-1.54 8,0 8,10.68 8,14.2 0,3.51 0,14.2 -8,14.2 -35.3,0 -61.2,2.5 -77,7.44 -15.1,4.67 -25.1,13.51 -30.5,27 -5.7,14.13 -8.6,36.45 -8.6,66.36 v 706.83 c 0,29.89 2.9,52.21 8.6,66.36"
         style="fill:#c5a059;fill-opacity:1;fill-rule:nonzero;stroke:none"
         transform="matrix(0.13333333,0,0,-0.13333333,0,2122.92)" />
      <path
         id="path20"
         d="m 11570.7,7750.55 -63,-1.55 c -25.5,-2.03 -49,-3.05 -69.9,-3.05 -30,0 -63.1,1.02 -98.6,3.06 l -67.4,1.54 c -3.5,0 -9.5,-1.85 -9.5,-14.2 0,-12.35 6,-14.2 9.5,-14.2 73.1,0 108.7,-22.94 108.7,-70.14 0,-15.69 -4,-34.73 -11.7,-56.47 l -240.9,-628.15 -291,648.23 c -8.7,20.74 -13.1,38.14 -13.1,51.73 0,36.88 28.7,54.8 87.7,54.8 3.5,0 9.5,1.85 9.5,14.2 0,12.35 -6,14.2 -9.5,14.2 -24.7,0 -45.4,-0.52 -61.5,-1.54 -49.2,-2.03 -101.9,-3.06 -156.8,-3.06 -22.9,0 -47.4,1.02 -73.1,3.06 l -46.5,1.54 c -3.6,0 -9.5,-1.85 -9.5,-14.2 0,-12.35 5.9,-14.2 9.5,-14.2 25.5,0 47.2,-8.08 64.6,-23.99 17.9,-16.34 35.9,-43.92 53.4,-81.94 l 375,-828.6 c 2.4,-9.97 16.6,-9.97 21.3,-9.97 4.7,0 18.9,0 21.1,9.34 l 305,798.83 c 35,90.46 87.7,136.33 156.9,136.33 3.5,0 9.4,1.85 9.4,14.2 0,12.35 -5.9,14.2 -9.6,14.2"
         style="fill:#c5a059;fill-opacity:1;fill-rule:nonzero;stroke:none"
         transform="matrix(0.13333333,0,0,-0.13333333,0,2122.92)" />
      <path
         id="path21"
         d="m 12447.4,7025.33 c -3.3,2.02 -7,3.04 -10.9,3.04 -9.1,0 -10.7,-4.98 -10.9,-7.37 -13.7,-61.89 -39.1,-110.14 -75.4,-143.44 -36.3,-33.21 -82.7,-50.05 -137.9,-50.05 h -97.2 c -39.3,0 -65.6,6.22 -78,18.5 -12.4,12.22 -18.7,36.31 -18.7,71.57 v 346.11 h 155 c 52.3,0 90.7,-10.16 114.1,-30.21 23.1,-19.89 34.9,-51.37 34.9,-93.58 0,-5.35 4.7,-8.06 14,-8.06 9.2,0 13.9,2.71 13.9,8.06 0,18.4 -1,44.29 -3,76.77 l -1.5,68.84 1.5,128.85 c 0,3.68 -2.3,8.06 -13.2,8.06 -10.9,0 -13.2,-4.38 -13.2,-8.06 0,-36 -11.4,-62.77 -33.9,-79.56 -22.9,-17.14 -59.6,-25.83 -109.1,-25.83 h -159.5 v 306.25 c 0,35.07 7,58.82 20.7,70.56 13.9,11.93 42.5,17.97 84.9,17.97 h 76.3 c 50.3,0 91.4,-14.27 122.2,-42.39 30.9,-28.17 49.9,-70.21 56.9,-125.87 1,-3.05 4.5,-8.24 15,-7.29 11.5,1.08 12.7,7.6 12.7,10.43 l -2.9,193.12 c 0,11.94 -7.3,18.8 -20,18.8 h -610 c -3.6,0 -9.5,-1.85 -9.5,-14.2 0,-12.35 5.9,-14.2 9.5,-14.2 34.1,0 59.5,-2.74 75.4,-8.16 15.1,-5.2 25.2,-14.06 30.6,-27.09 5.7,-13.65 8.6,-35.7 8.6,-65.55 v -709.9 c 0,-29.91 -2.9,-52.23 -8.6,-66.37 -5.5,-13.5 -15.2,-22.32 -29.8,-27.01 -15.3,-4.92 -41,-7.42 -76.2,-7.42 -3.6,0 -9.5,-1.85 -9.5,-14.2 0,-12.36 5.9,-14.2 9.5,-14.2 h 636.9 c 10.7,0 17.8,2.34 21.8,7.15 3.8,4.54 5.6,11.35 5.6,20.85 0,63.97 5.1,133.38 15,206.99 0,3.81 -3.3,6.32 -6.1,8.09"
         style="fill:#c5a059;fill-opacity:1;fill-rule:nonzero;stroke:none"
         transform="matrix(0.13333333,0,0,-0.13333333,0,2122.92)" />
    </g>
  </g>
</svg>
